<?xml version="1.0" encoding="UTF-8" standalone="no"?>
<!-- Created with Inkscape (http://www.inkscape.org/) -->

<svg
   xmlns:osb="http://www.openswatchbook.org/uri/2009/osb"
   xmlns:dc="http://purl.org/dc/elements/1.1/"
   xmlns:cc="http://creativecommons.org/ns#"
   xmlns:rdf="http://www.w3.org/1999/02/22-rdf-syntax-ns#"
   xmlns:svg="http://www.w3.org/2000/svg"
   xmlns="http://www.w3.org/2000/svg"
   xmlns:xlink="http://www.w3.org/1999/xlink"
   xmlns:sodipodi="http://sodipodi.sourceforge.net/DTD/sodipodi-0.dtd"
   xmlns:inkscape="http://www.inkscape.org/namespaces/inkscape"
   width="100"
   height="100"
   id="svg2372"
   sodipodi:version="0.32"
   inkscape:version="0.48.4 r9939"
   version="1.0"
   sodipodi:docname="ic_launcher.svg"
   inkscape:output_extension="org.inkscape.output.svg.inkscape">
  <defs
     id="defs2374">
    <linearGradient
       id="linearGradient3829">
      <stop
         style="stop-color:#a09c9c;stop-opacity:1;"
         offset="0"
         id="stop3831" />
      <stop
         style="stop-color:#f5f5f5;stop-opacity:1;"
         offset="1"
         id="stop3833" />
    </linearGradient>
    <linearGradient
       id="linearGradient5295">
      <stop
         style="stop-color:#9f4402;stop-opacity:1;"
         offset="0"
         id="stop5297" />
      <stop
         style="stop-color:#ff9c54;stop-opacity:1;"
         offset="1"
         id="stop5299" />
    </linearGradient>
    <linearGradient
       id="linearGradient5285"
       osb:paint="solid">
      <stop
         style="stop-color:#ffffff;stop-opacity:1;"
         offset="0"
         id="stop5287" />
    </linearGradient>
    <linearGradient
       id="linearGradient5251">
      <stop
         style="stop-color:#536af5;stop-opacity:1;"
         offset="0"
         id="stop5253" />
      <stop
         style="stop-color:#cfd1f7;stop-opacity:1;"
         offset="1"
         id="stop5255" />
    </linearGradient>
    <linearGradient
       id="linearGradient5215"
       osb:paint="gradient">
      <stop
         style="stop-color:#7171e7;stop-opacity:1;"
         offset="0"
         id="stop5217" />
      <stop
         style="stop-color:#f7f59f;stop-opacity:1;"
         offset="1"
         id="stop5219" />
    </linearGradient>
    <linearGradient
       id="linearGradient3765">
      <stop
         id="stop3779"
         offset="0"
         style="stop-color:#5656ff;stop-opacity:0.49803922;" />
      <stop
         style="stop-color:#5252ff;stop-opacity:0;"
         offset="1"
         id="stop3769" />
    </linearGradient>
    <linearGradient
       inkscape:collect="always"
       xlink:href="#linearGradient5251"
       id="linearGradient5261"
       x1="19.56727"
       y1="276.91846"
       x2="120.56727"
       y2="276.91846"
       gradientUnits="userSpaceOnUse"
       spreadMethod="reflect"
       gradientTransform="matrix(0.99009901,0,0,0.99009901,-346.29199,-204.10942)" />
    <linearGradient
       inkscape:collect="always"
       xlink:href="#linearGradient5295"
       id="linearGradient5301"
       x1="100.2759"
       y1="176.47935"
       x2="107.86372"
       y2="224.46593"
       gradientUnits="userSpaceOnUse" />
    <filter
       id="filter5463"
       style="color-interpolation-filters:sRGB;"
       inkscape:label="Drop Shadow">
      <feFlood
         id="feFlood5465"
         flood-opacity="0.6"
         flood-color="rgb(0,0,0)"
         result="flood" />
      <feComposite
         id="feComposite5467"
         in2="SourceGraphic"
         in="flood"
         operator="in"
         result="composite1" />
      <feGaussianBlur
         id="feGaussianBlur5469"
         in="composite"
         stdDeviation="2"
         result="blur" />
      <feOffset
         id="feOffset5471"
         dx="3"
         dy="3"
         result="offset" />
      <feComposite
         id="feComposite5473"
         in2="offset"
         in="SourceGraphic"
         operator="over"
         result="composite2" />
    </filter>
    <linearGradient
       inkscape:collect="always"
       xlink:href="#linearGradient5295"
       id="linearGradient5514"
       gradientUnits="userSpaceOnUse"
       x1="100.2759"
       y1="176.47935"
       x2="107.86372"
       y2="224.46593"
       gradientTransform="translate(2.6827014,1.4910344)" />
    <linearGradient
       inkscape:collect="always"
       xlink:href="#linearGradient5295"
       id="linearGradient3039"
       gradientUnits="userSpaceOnUse"
       x1="100.2759"
       y1="176.47935"
       x2="107.86372"
       y2="224.46593" />
    <linearGradient
       inkscape:collect="always"
       xlink:href="#linearGradient5295"
       id="linearGradient3020"
       gradientUnits="userSpaceOnUse"
       x1="100.2759"
       y1="176.47935"
       x2="107.86372"
       y2="224.46593"
       gradientTransform="translate(-3.5724056,-1.6049521)" />
    <linearGradient
       inkscape:collect="always"
       xlink:href="#linearGradient5295"
       id="linearGradient3037"
       gradientUnits="userSpaceOnUse"
       gradientTransform="translate(-3.5724056,-1.6049521)"
       x1="100.2759"
       y1="176.47935"
       x2="107.86372"
       y2="224.46593" />
    <linearGradient
       inkscape:collect="always"
       xlink:href="#linearGradient5295"
       id="linearGradient3817"
       gradientUnits="userSpaceOnUse"
       gradientTransform="translate(-3.5724056,-1.6049521)"
       x1="100.2759"
       y1="176.47935"
       x2="107.86372"
       y2="224.46593" />
    <linearGradient
       inkscape:collect="always"
       xlink:href="#linearGradient5295"
       id="linearGradient3824"
       gradientUnits="userSpaceOnUse"
       gradientTransform="matrix(0.97452336,0,0,0.97452336,-0.4726858,3.3513863)"
       x1="100.2759"
       y1="176.47935"
       x2="107.86372"
       y2="224.46593" />
    <linearGradient
       inkscape:collect="always"
       xlink:href="#linearGradient3829"
       id="linearGradient3835"
       x1="73.404457"
       y1="229.47939"
       x2="73.404457"
       y2="328.27155"
       gradientUnits="userSpaceOnUse" />
    <linearGradient
       inkscape:collect="always"
       xlink:href="#linearGradient3829"
       id="linearGradient3847"
       gradientUnits="userSpaceOnUse"
       x1="73.404457"
       y1="229.47939"
       x2="73.404457"
       y2="328.27155" />
    <linearGradient
       inkscape:collect="always"
       xlink:href="#linearGradient5295"
       id="linearGradient3849"
       gradientUnits="userSpaceOnUse"
       gradientTransform="matrix(0.97452336,0,0,0.97452336,-0.4726858,3.3513863)"
       x1="100.2759"
       y1="176.47935"
       x2="107.86372"
       y2="224.46593" />
  </defs>
  <sodipodi:namedview
     id="base"
     pagecolor="#ffffff"
     bordercolor="#666666"
     borderopacity="1.0"
     gridtolerance="10000"
     guidetolerance="10"
     objecttolerance="10"
     inkscape:pageopacity="0.0"
     inkscape:pageshadow="2"
     inkscape:zoom="4"
     inkscape:cx="12.29313"
     inkscape:cy="59.36323"
     inkscape:document-units="px"
     inkscape:current-layer="layer1"
     inkscape:window-width="1237"
     inkscape:window-height="780"
     inkscape:window-x="41"
     inkscape:window-y="-3"
     width="400px"
     height="400px"
     showgrid="false"
     inkscape:window-maximized="1" />
  <metadata
     id="metadata2377">
    <rdf:RDF>
      <cc:Work
         rdf:about="">
        <dc:format>image/svg+xml</dc:format>
        <dc:type
           rdf:resource="http://purl.org/dc/dcmitype/StillImage" />
      </cc:Work>
    </rdf:RDF>
  </metadata>
  <g
     inkscape:label="Layer 1"
     inkscape:groupmode="layer"
     id="layer1"
     transform="translate(-20.06727,-226.91845)">
    <g
       id="g3837"
       transform="matrix(0.99527376,0,0,0.99527376,0.30611118,0.82886714)">
      <path
         transform="translate(0.5,0)"
         d="m 41.90625,230.46875 c -6.663541,0.59486 -11.725677,4.51695 -15.25,9.65625 -3.524323,5.1393 -5.574908,11.51534 -6.375,17.28125 -2.135937,16.90515 -1.446425,37.09591 11.5625,49.8125 -1.628242,0.74425 -3.399266,1.92846 -4.59375,3.5 -0.707042,0.93023 -1.218239,1.98391 -1.1875,3.125 0.03074,1.14109 0.645933,2.27621 1.84375,3.21875 a 0.71819215,0.71819215 0 0 0 0.125,0.0937 C 30.834313,318.46659 33.624758,317.842 36.25,317 c 2.198936,-0.70527 4.338308,-1.42302 6.40625,-1.65625 -0.854516,2.19457 -0.262349,4.56023 1.1875,6.15625 1.707809,1.87999 4.59357,2.73605 7.28125,1.28125 0.0091,-0.005 0.02217,0.005 0.03125,0 3.766192,-0.96977 9.17529,-1.64266 12.375,-1.375 -0.254351,0.90049 -0.33047,1.77668 -0.09375,2.5625 0.325052,1.07905 1.029364,1.9634 1.9375,2.59375 1.780598,1.23594 4.328253,1.52066 6.40625,0.25 1.479143,-0.56385 2.871957,-0.3105 4.5,0 1.602518,0.30564 3.434257,0.64571 5.5,0.15625 l 0,0.0312 c 2.645257,-0.31756 6.053635,-0.001 9.3125,0.125 3.258865,0.12618 6.387247,0.11123 8.59375,-1.21875 A 0.71819215,0.71819215 0 0 0 100,325.0625 c -0.31892,-0.9272 -0.230426,-1.38993 0,-1.71875 0.23043,-0.32882 0.7416,-0.6267 1.46875,-0.84375 1.44611,-0.43165 3.53133,-0.50182 5.09375,-1.15625 0.009,-0.003 0.0224,0.003 0.0312,0 1.68297,-0.64511 3.85505,-0.76985 5.96875,-0.96875 2.12479,-0.19994 4.2277,-0.46444 5.8125,-1.6875 a 0.71819215,0.71819215 0 0 0 0.25,-0.34375 c 2.1486,-6.47377 0.78139,-13.66206 0.71875,-19.96875 a 0.71819215,0.71819215 0 0 0 -0.15625,-0.46875 c -1.73654,-2.0748 -1.88428,-4.52287 -1.75,-7.28125 0.13189,-2.70912 0.5467,-5.64927 -0.28125,-8.5 -0.005,-0.0543 -0.0259,-0.1021 -0.0312,-0.15625 -0.93842,-9.42497 -8.40444,-15.78356 -12.375,-23.0625 0.28899,-0.14332 0.52587,-0.33236 0.96875,-0.375 0.68303,-0.0658 1.51917,-0.004 2.40625,0.0937 1.77417,0.19471 3.72238,0.57446 5.34375,0.0937 a 0.71819215,0.71819215 0 0 0 0.0625,-0.0312 c 1.35073,-0.57618 2.10242,-1.81068 2.4375,-3.21875 0.33508,-1.40807 0.32084,-3.03901 0.21875,-4.75 -0.20418,-3.42198 -0.77703,-7.20032 -0.25,-9.53125 0.50418,-2.12145 0.62809,-3.85783 0.34375,-5.3125 -0.28434,-1.45467 -0.98814,-2.60224 -2.03125,-3.375 -2.04887,-1.51785 -5.17823,-1.61341 -8.9375,-1 -7.670718,-1.49617 -16.212096,1.92454 -19.0625,9.46875 0.01003,-0.53287 0.02547,-0.98425 0.03125,-1.59375 0.531381,-2.05941 0.582225,-3.68379 0.09375,-4.9375 -0.50495,-1.296 -1.566248,-2.11661 -2.8125,-2.5625 -2.476248,-0.88596 -5.791879,-0.55905 -8.96875,-0.375 -0.02269,-0.007 -0.03993,0.007 -0.0625,0 -2.246208,-0.66278 -3.952241,-0.72083 -5.21875,-0.125 -1.318625,0.62035 -2.02768,1.87025 -2.34375,3.28125 -0.628066,2.8038 -0.04544,6.50412 -0.09375,9.5 -3.13e-4,0.0194 3.67e-4,0.0431 0,0.0625 -0.377066,5.28514 0.478755,11.73104 -0.375,16.09375 -0.186729,-0.0865 -0.362569,-0.19221 -0.5625,-0.25 -0.690506,-0.19958 -1.454072,-0.2656 -2.28125,-0.28125 -1.654356,-0.0313 -3.514564,0.17587 -5.03125,0.21875 -0.758343,0.0214 -1.431497,-0.0123 -1.90625,-0.0937 -0.474753,-0.0814 -0.694637,-0.2138 -0.71875,-0.25 -0.02411,-0.0362 -0.08254,-0.16429 0.15625,-0.65625 0.238793,-0.49196 0.780278,-1.21641 1.6875,-2.1875 A 0.71819215,0.71819215 0 0 0 58,256.5 c 0.551269,-1.9168 2.632276,-4.15401 4.15625,-6.46875 0.761987,-1.15737 1.394233,-2.36392 1.53125,-3.65625 0.133592,-1.26002 -0.303001,-2.57547 -1.40625,-3.75 l 0.03125,0 c -0.0244,-0.0352 -0.06921,-0.0585 -0.09375,-0.0937 -4.557503,-6.53651 -11.52802,-12.79182 -20.3125,-12.0625 z m 3,27.65625 a 0.71819215,0.71819215 0 0 0 0.03125,0 c 0.430439,-0.036 1.015243,0.17207 1.5625,0.53125 0.547257,0.35918 1.057498,0.86381 1.28125,1.25 0.07552,0.13034 0.07416,0.17783 0.09375,0.25 -0.0407,-0.008 -0.50182,0.13424 -1.625,-0.21875 a 0.71819215,0.71819215 0 0 0 -0.3125,-0.0312 c -1.560089,0.22904 -3.317701,0.219 -3.875,0 -0.05327,-0.0209 -0.03653,-0.0152 -0.0625,-0.0312 0.04927,-0.10498 0.343462,-0.53206 1.15625,-1.125 a 0.71819215,0.71819215 0 0 0 0,-0.0312 c 0.461559,-0.35493 1.07413,-0.56891 1.75,-0.59375 z m -6.03125,11.03125 0,7.1875 c -0.254756,-2.40557 -0.268306,-4.81182 0,-7.1875 z M 41.6875,284.25 c 0.08765,0.0144 0.160541,0.0829 0.25,0.0937 0.947894,0.11498 2.031351,0.0278 2.9375,0 0.404093,-0.0124 0.757213,-0.0185 1.03125,0 -0.161044,0.18943 -0.332131,0.37124 -0.75,0.71875 -0.482059,0.40095 -0.88622,0.54133 -1.3125,0.53125 -0.42628,-0.0101 -0.900501,-0.16628 -1.34375,-0.46875 -0.306954,-0.20946 -0.544263,-0.56354 -0.8125,-0.875 z"
         id="path3025"
         style="font-size:78.78852081px;font-style:normal;font-variant:normal;font-weight:500;font-stretch:normal;text-align:center;line-height:125%;letter-spacing:0px;word-spacing:0px;text-anchor:middle;fill:url(#linearGradient3847);fill-opacity:1;fill-rule:nonzero;stroke:none;font-family:URW Palladio L;-inkscape-font-specification:URW Palladio L Medium"
         inkscape:original="M 41.96875 231.1875 C 29.129497 232.33367 22.573788 246.1584 21 257.5 C 18.835676 274.62982 19.554501 295.0304 33 307.4375 C 29.682063 308.61509 24.034421 313.10906 28.34375 316.5 C 33.467189 318.89504 38.579243 314.33653 43.875 314.4375 C 40.649984 318.90012 46.039744 324.95155 50.9375 322.09375 C 55.084675 321.02232 61.189927 320.21227 64.46875 320.71875 C 62.227111 325.13622 67.878355 328.52355 71.53125 326.15625 C 74.894573 324.87416 77.82454 327.245 81.6875 326.28125 C 87.230411 325.61583 95.438957 327.61604 99.3125 325.28125 C 97.85572 321.04592 103.63253 321.8259 106.3125 320.6875 C 110.00123 319.25738 115.20129 320.23665 117.9375 318.125 C 120.00589 311.89289 118.68857 304.77493 118.625 298.375 C 114.81451 293.82227 118.09379 287.58312 116.4375 282.1875 C 115.57721 272.75118 107.70201 266.36614 103.71875 258.5625 C 105.65347 256.70897 110.57 258.82583 113.25 258.03125 C 117.68955 256.13747 114.08209 246.19667 115.25 241.03125 C 117.20493 232.80548 112.79603 230.94355 105.25 232.21875 C 97.79142 230.72491 89.488823 234.07677 86.84375 241.40625 C 85.200371 247.00416 85.517909 244.07814 85.5625 239.375 C 87.812051 231.07337 80.982738 231.85059 74.5625 232.21875 C 65.371053 229.35022 67.71118 238.01326 67.59375 244.21875 C 67.1845 249.79908 68.390485 256.99465 67.03125 261.625 C 65.066616 258.28801 49.845132 264.30555 57.3125 256.3125 C 58.581966 251.89848 65.922644 247.33747 61.71875 243.03125 C 57.236965 236.56324 50.428433 230.48515 41.96875 231.1875 z M 44.875 257.40625 C 47.548253 257.18251 51.190893 262.24658 46.03125 260.625 C 42.791483 261.10063 39.081462 260.80972 42.71875 258.15625 C 43.306216 257.7045 44.058365 257.43626 44.875 257.40625 z M 39.59375 262.8125 L 39.59375 280.59375 C 39.68976 283.86034 38.279892 278.08123 38.1875 276.875 C 37.631131 272.13628 37.926666 267.28436 39.59375 262.8125 z M 39.84375 282.59375 L 40.59375 282.59375 C 40.55571 285.20463 50.320442 281.72015 45.625 285.625 C 43.242197 287.6069 40.557699 284.86114 39.84375 282.59375 z "
         inkscape:radius="0.71812034"
         sodipodi:type="inkscape:offset" />
      <text
         transform="scale(0.74551719,1.3413507)"
         xml:space="preserve"
         style="font-size:76.78125763px;font-style:normal;font-variant:normal;font-weight:500;font-stretch:normal;text-align:center;line-height:125%;letter-spacing:0px;word-spacing:0px;text-anchor:middle;fill:#666666;fill-opacity:1;fill-rule:nonzero;stroke:none;font-family:URW Palladio L;-inkscape-font-specification:URW Palladio L Medium"
         x="92.192009"
         y="229.61015"
         id="text5510"
         sodipodi:linespacing="125%"><tspan
           sodipodi:role="line"
           id="tspan5512"
           x="92.192009"
           y="229.61015"
           style="font-style:normal;font-variant:normal;font-weight:normal;font-stretch:normal;fill:#666666;fill-opacity:1;fill-rule:nonzero;stroke:none;font-family:BahamasHeavy;-inkscape-font-specification:BahamasHeavy">GIS</tspan></text>
      <text
         transform="scale(0.74551718,1.3413507)"
         sodipodi:linespacing="125%"
         id="text2990"
         y="228.88365"
         x="90.884834"
         style="font-size:76.78125763px;font-style:normal;font-variant:normal;font-weight:500;font-stretch:normal;text-align:center;line-height:125%;letter-spacing:0px;word-spacing:0px;text-anchor:middle;fill:url(#linearGradient3849);fill-opacity:1;fill-rule:nonzero;stroke:#000000;stroke-width:0.48726168;stroke-miterlimit:4;stroke-opacity:1;stroke-dasharray:none;font-family:URW Palladio L;-inkscape-font-specification:URW Palladio L Medium"
         xml:space="preserve"><tspan
           style="font-style:normal;font-variant:normal;font-weight:normal;font-stretch:normal;fill:url(#linearGradient3849);fill-opacity:1;fill-rule:nonzero;stroke:#000000;stroke-width:0.48726168;stroke-miterlimit:4;stroke-opacity:1;stroke-dasharray:none;font-family:BahamasHeavy;-inkscape-font-specification:BahamasHeavy"
           y="228.88365"
           x="90.884834"
           id="tspan2992"
           sodipodi:role="line">GIS</tspan></text>
      <path
         inkscape:connector-curvature="0"
         id="path5259"
         d="m 70.853367,275.57705 2.070862,-6.21259 4.019909,-4.7508 5.968956,-10.84157 3.167201,-4.14173 1.461785,0 2.192678,6.94348 2.801754,0.36545 2.801755,1.94904 3.898094,5.11625 2.923569,4.99443 -0.97452,2.19268 0.12181,3.89809 -12.42517,9.50161 -14.008774,-2.80176 z"
         style="opacity:0.7;fill:#ffffff;stroke:none" />
      <path
         id="path5502"
         d="m 67.229358,322.5978 c 0.923845,0.90991 2.407162,0.54018 3.745825,0.0609 0.09822,-0.0394 0.205767,-0.0245 0.304538,-0.0609 l -4.050363,0 z"
         style="fill:#000000;fill-opacity:1;fill-rule:nonzero;stroke:none"
         inkscape:connector-curvature="0" />
      <path
         id="path3558"
         d="m 67.229358,322.5978 4.050363,0 c 1.276513,-0.47167 2.578454,-0.75277 3.928548,-0.82226 0.392768,0.19567 0.52709,0.41737 0.7918,0.82226 l 21.074068,0 c -0.04019,-0.15389 0.03121,-0.2631 -0.03045,-0.42635 -0.32193,-0.9681 -0.621032,-1.75429 0.274085,-2.37541 0.950764,-0.68651 2.023705,-1.13848 3.197648,-1.37042 3.21749,-0.87403 6.45097,-1.63286 9.74524,-2.16222 1.7179,-0.26115 3.44797,-0.46562 5.17715,-0.57863 0.42631,-1.14908 0.73089,-2.35346 0.73089,-3.65446 l 0,-13.70423 c -1.30367,-2.20459 -2.61153,-4.40511 -3.86764,-6.63894 -1.71122,-3.16985 -3.33344,-6.3707 -5.11624,-9.50161 -1.30753,-2.32786 -2.71809,-4.61309 -4.01991,-6.94348 -0.56198,-1.06112 -1.00697,-2.18693 -1.15725,-3.38037 0.16086,-0.0424 0.298,-0.0702 0.45681,-0.12182 1.06478,-0.57455 1.67389,-1.32096 1.12679,-2.55812 -0.76463,-1.02289 -1.66469,-1.9034 -2.43631,-2.92357 -1.387733,-1.81902 -2.682433,-3.73146 -4.080809,-5.54261 -1.144036,-1.47219 -2.356917,-2.89391 -3.349924,-4.47671 -0.686715,-0.68405 -1.184599,-1.15499 -2.223132,-0.91362 -0.220253,0.05 -0.409194,0.14877 -0.639531,0.15227 -0.179614,-0.0864 -0.475559,-0.0581 -0.548169,-0.24363 -0.581622,-0.95713 -1.078299,-1.96609 -1.400877,-3.04539 -0.316718,-1.1158 -0.534512,-2.2832 -1.065885,-3.31947 -0.632139,-0.45291 -1.164634,-0.76267 -1.73587,-0.70043 -0.342739,0.0374 -0.695263,0.22816 -1.096339,0.57862 -0.757438,0.83032 -1.404721,1.69666 -1.857685,2.74085 -0.820636,1.71415 -1.595327,3.45821 -2.405855,5.17715 -1.05193,2.31286 -2.155903,4.62001 -3.532647,6.76076 -1.110308,1.6312 -2.265895,3.21605 -3.745824,4.53762 -0.568902,0.5598 -1.362894,1.14422 -1.674962,1.82723 -0.231821,0.50737 0.659508,1.34816 1.157246,1.09634 0.699162,-0.35374 1.233406,-1.13067 1.766324,-1.73587 1.237949,-1.65458 2.174207,-3.50805 3.136747,-5.32942 1.209462,-2.25615 2.436805,-4.52578 3.684917,-6.76076 0.870713,-1.66657 1.869457,-3.24773 2.954024,-4.78125 0.437389,-0.75321 1.066193,-1.26152 1.735869,-1.76633 0.513936,0.64087 0.767438,1.49212 1.065885,2.25359 0.419709,1.09028 0.754952,2.19429 1.065885,3.31947 0.295021,1.12036 0.972895,1.58141 1.979501,1.9795 0.646565,0.13337 1.264488,-0.0636 1.888139,-0.21318 0.06699,-0.0601 0.06624,-0.0671 0.09136,-0.0913 -0.036,0.0377 -0.03077,0.0583 0.15227,-0.0609 1.589583,0.8743 2.901553,2.13562 4.141724,3.44129 1.513114,1.68883 2.650577,3.61262 3.654458,5.63396 0.456,0.78659 0.75374,1.63945 0.94407,2.49722 -0.1688,0.033 -0.34936,0.058 -0.51771,0.0913 -1.303894,0.41948 -1.379946,1.39891 -1.09634,2.55812 0.162911,0.53756 0.328356,1.07091 0.54817,1.5836 -0.293605,-0.10947 -0.559377,-0.22507 -0.852709,-0.33499 -0.773937,-0.24704 -1.573108,-0.28399 -2.3754,-0.27408 -0.87699,-0.009 -1.518728,0.34551 -2.192678,0.8527 -0.278314,0.34001 -0.600318,0.64294 -0.913616,0.94407 -0.333854,0.20392 -0.722252,0.13447 -1.096338,0.15227 -1.122531,-0.13709 -2.254387,-0.20045 -3.380378,-0.18272 -1.359538,0.4696 -1.696669,1.68095 -2.223132,2.89312 -0.468937,1.20997 -1.232694,2.09576 -2.192677,2.92357 -0.690234,0.51681 -1.459688,0.50434 -2.253586,0.54817 -0.64243,-0.1649 -0.870658,-0.68269 -1.218154,-1.1877 -0.371963,-0.70988 -0.600695,-1.47554 -0.883162,-2.22314 -0.321699,-1.05779 -0.980308,-1.82557 -1.73587,-2.58857 -1.065356,-0.81619 -2.232538,-0.79328 -3.502193,-0.76135 -0.859728,0.0949 -1.697921,0.22057 -2.558124,0.30454 0.01167,-0.16285 -0.447193,-0.56366 -0.578623,-0.73089 -0.5774,-0.59097 -1.204508,-0.67501 -1.979501,-0.7309 -0.01157,-2.1e-4 -0.01908,0 -0.03045,0 -0.0038,-3e-5 -0.02664,0 -0.03045,0 -0.303847,-0.0495 -0.571734,-0.002 -0.700439,0.12182 -0.431311,0.13676 -0.673578,0.40042 -1.035431,0.88316 -0.02561,0.0341 -0.02768,0.0893 0,0.12182 0.168365,0.1978 0.33032,0.3771 0.487261,0.51771 -0.148905,0.26316 -0.313499,0.50866 -0.456807,0.76135 -1.012187,1.64732 -2.2425,3.13513 -3.532648,4.56808 -1.734303,1.93545 -3.585201,3.76517 -5.390332,5.63396 -1.812924,1.9175 -3.723824,3.7524 -5.603509,5.60351 -1.863631,1.75146 -3.725789,3.50176 -5.60351,5.23806 -1.802689,1.77748 -3.673365,3.4704 -5.542602,5.17716 -1.991458,1.91039 -4.089417,3.70615 -6.273494,5.39033 -1.733358,1.18473 -3.489725,2.31727 -5.298971,3.38038 -2.523508,2.66185 0.577858,3.82485 3.106294,3.13675 3.040176,-1.06088 6.143745,-1.87117 9.318879,-2.40586 1.59704,-0.23814 3.206427,-0.45319 4.81171,-0.45681 -0.657103,1.24926 -1.394376,2.45713 -1.979501,3.74583 -1.029963,2.2947 -0.0988,4.19437 2.405854,4.59853 2.131316,-0.33613 4.176908,-1.03631 6.303949,-1.43133 1.693305,-0.23023 3.384596,-0.31064 5.085793,-0.45681 1.876643,-0.2114 3.775729,-0.43179 5.664418,-0.48726 0.900257,-0.1106 1.752504,-0.0306 2.558124,0.18272 -0.03734,0.0796 -0.07323,0.13938 -0.121816,0.24363 -0.884852,1.3946 -1.818942,2.68053 -1.766324,4.38536 0.151871,0.48913 0.381734,0.78152 0.639531,1.03543 z"
         style="fill:#000000;fill-opacity:1;fill-rule:nonzero;stroke:none"
         inkscape:connector-curvature="0" />
    </g>
  </g>
</svg>
