<?xml version="1.0" encoding="UTF-8" standalone="no"?>
<!-- Created with Inkscape (http://www.inkscape.org/) -->

<svg
   xmlns:dc="http://purl.org/dc/elements/1.1/"
   xmlns:cc="http://creativecommons.org/ns#"
   xmlns:rdf="http://www.w3.org/1999/02/22-rdf-syntax-ns#"
   xmlns:svg="http://www.w3.org/2000/svg"
   xmlns="http://www.w3.org/2000/svg"
   xmlns:sodipodi="http://sodipodi.sourceforge.net/DTD/sodipodi-0.dtd"
   xmlns:inkscape="http://www.inkscape.org/namespaces/inkscape"
   width="48"
   height="48"
   id="svg2"
   inkscape:label="Pozadí"
   version="1.1"
   inkscape:version="0.48.4 r9939"
   sodipodi:docname="ic_menu_show_gps.svg">
  <defs
     id="defs3" />
  <sodipodi:namedview
     id="base"
     pagecolor="#ffffff"
     bordercolor="#666666"
     borderopacity="1.0"
     inkscape:pageopacity="0.0"
     inkscape:pageshadow="2"
     inkscape:zoom="7.919596"
     inkscape:cx="16.769407"
     inkscape:cy="26.399596"
     inkscape:document-units="px"
     inkscape:current-layer="layer1"
     showgrid="false"
     inkscape:window-width="1237"
     inkscape:window-height="780"
     inkscape:window-x="41"
     inkscape:window-y="-3"
     inkscape:window-maximized="1" />
  <metadata
     id="metadata6">
    <rdf:RDF>
      <cc:Work
         rdf:about="">
        <dc:format>image/svg+xml</dc:format>
        <dc:type
           rdf:resource="http://purl.org/dc/dcmitype/StillImage" />
        <dc:title />
      </cc:Work>
    </rdf:RDF>
  </metadata>
  <g
     inkscape:label="Vrstva 1"
     inkscape:groupmode="layer"
     id="layer1"
     transform="translate(0,-1004.3622)">
    <path
       sodipodi:type="arc"
       style="fill:#000000;fill-opacity:1;fill-rule:nonzero;stroke:none"
       id="path2986"
       sodipodi:cx="21.383928"
       sodipodi:cy="22.107143"
       sodipodi:rx="10.357142"
       sodipodi:ry="10.133928"
       d="m 31.741071,22.107143 a 10.357142,10.133928 0 1 1 -20.714285,0 10.357142,10.133928 0 1 1 20.714285,0 z"
       transform="matrix(0.71094862,0,0,0.71863506,-1.71193,1023.1324)" />
    <path
       style="font-size:medium;font-style:normal;font-variant:normal;font-weight:normal;font-stretch:normal;text-indent:0;text-align:start;text-decoration:none;line-height:normal;letter-spacing:normal;word-spacing:normal;text-transform:none;direction:ltr;block-progression:tb;writing-mode:lr-tb;text-anchor:start;baseline-shift:baseline;color:#000000;fill:#000000;fill-opacity:1;stroke:none;stroke-width:2.012218;marker:none;visibility:visible;display:inline;overflow:visible;enable-background:accumulate;font-family:Sans;-inkscape-font-specification:Sans"
       d="m 13.483337,1027.9953 c -6.1482787,0 -11.1285514,4.9433 -11.1285514,11.0241 0,6.0808 4.9802727,11.0239 11.1285514,11.0239 6.14828,0 11.146302,-4.9431 11.146302,-11.0239 0,-6.0808 -4.998022,-11.0241 -11.146302,-11.0241 z m 0,1.1236 c 5.530627,0 10.010371,4.4305 10.010371,9.9005 0,5.4698 -4.479744,9.9005 -10.010371,9.9005 -5.5306272,0 -9.9926226,-4.4307 -9.9926226,-9.9005 0,-5.47 4.4619954,-9.9005 9.9926226,-9.9005 z"
       id="path3756"
       inkscape:connector-curvature="0" />
    <rect
       style="fill:#000000;stroke:none"
       id="rect3762"
       width="1.1731263"
       height="26.685827"
       x="12.904383"
       y="1025.6764" />
    <rect
       y="-26.981905"
       x="1038.4392"
       height="26.981905"
       width="1.1602534"
       id="rect3764"
       style="fill:#000000;stroke:none"
       transform="matrix(0,1,-1,0,0,0)" />
    <path
       style="fill:#000000;fill-opacity:1;fill-rule:nonzero;stroke:none"
       d="m 42.948557,1026.2859 -3.803438,-3.7617 8.854881,-8.7578 -9.508597,-9.4042 -8.85488,8.7577 -3.803438,-3.7617 -1.42629,9.8745 -1.42629,9.8744 9.984028,-1.4107 9.984024,-1.4105 z"
       id="rect3833"
       inkscape:connector-curvature="0" />
  </g>
</svg>
