<?xml version="1.0" encoding="UTF-8" standalone="no"?>
<!-- Created with Inkscape (http://www.inkscape.org/) -->

<svg
   xmlns:dc="http://purl.org/dc/elements/1.1/"
   xmlns:cc="http://creativecommons.org/ns#"
   xmlns:rdf="http://www.w3.org/1999/02/22-rdf-syntax-ns#"
   xmlns:svg="http://www.w3.org/2000/svg"
   xmlns="http://www.w3.org/2000/svg"
   xmlns:sodipodi="http://sodipodi.sourceforge.net/DTD/sodipodi-0.dtd"
   xmlns:inkscape="http://www.inkscape.org/namespaces/inkscape"
   width="48"
   height="48"
   id="svg2"
   inkscape:label="Pozadí"
   version="1.1"
   inkscape:version="0.48.4 r9939"
   sodipodi:docname="gps_on.svg">
  <defs
     id="defs3" />
  <sodipodi:namedview
     id="base"
     pagecolor="#ffffff"
     bordercolor="#666666"
     borderopacity="1.0"
     inkscape:pageopacity="0.0"
     inkscape:pageshadow="2"
     inkscape:zoom="11.2"
     inkscape:cx="21.264798"
     inkscape:cy="25.931448"
     inkscape:document-units="px"
     inkscape:current-layer="layer1"
     showgrid="false"
     inkscape:window-width="1680"
     inkscape:window-height="1030"
     inkscape:window-x="1278"
     inkscape:window-y="-3"
     inkscape:window-maximized="1" />
  <metadata
     id="metadata6">
    <rdf:RDF>
      <cc:Work
         rdf:about="">
        <dc:format>image/svg+xml</dc:format>
        <dc:type
           rdf:resource="http://purl.org/dc/dcmitype/StillImage" />
        <dc:title></dc:title>
      </cc:Work>
    </rdf:RDF>
  </metadata>
  <g
     inkscape:label="Vrstva 1"
     inkscape:groupmode="layer"
     id="layer1"
     transform="translate(0,-1004.3622)">
    <g
       id="g2988">
      <path
         transform="matrix(1.3517242,0,0,1.3814978,-4.9051733,997.82123)"
         d="m 31.741071,22.107143 c 0,5.596814 -4.637051,10.133929 -10.357143,10.133929 -5.720092,0 -10.357142,-4.537115 -10.357142,-10.133929 0,-5.596814 4.63705,-10.133928 10.357142,-10.133928 5.720092,0 10.357143,4.537114 10.357143,10.133928 z"
         sodipodi:ry="10.133928"
         sodipodi:rx="10.357142"
         sodipodi:cy="22.107143"
         sodipodi:cx="21.383928"
         id="path2986"
         style="fill:#000000;fill-opacity:1;fill-rule:nonzero;stroke:none"
         sodipodi:type="arc" />
      <path
         inkscape:connector-curvature="0"
         id="path3756"
         d="m 24.165602,1009.4487 c -10.481871,0 -18.9724701,8.5209 -18.9724701,19.0028 0,10.4818 8.4905991,19.0027 18.9724701,19.0027 10.481871,0 19.00273,-8.5209 19.00273,-19.0027 0,-10.4819 -8.520859,-19.0028 -19.00273,-19.0028 z m 0,1.9366 c 9.42887,0 17.066146,7.6373 17.066146,17.0662 0,9.4288 -7.637276,17.0661 -17.066146,17.0661 -9.42887,0 -17.0358862,-7.6373 -17.0358862,-17.0661 0,-9.4289 7.6070162,-17.0662 17.0358862,-17.0662 z"
         style="font-size:medium;font-style:normal;font-variant:normal;font-weight:normal;font-stretch:normal;text-indent:0;text-align:start;text-decoration:none;line-height:normal;letter-spacing:normal;word-spacing:normal;text-transform:none;direction:ltr;block-progression:tb;writing-mode:lr-tb;text-anchor:start;baseline-shift:baseline;color:#000000;fill:#000000;fill-opacity:1;stroke:none;stroke-width:2.012218;marker:none;visibility:visible;display:inline;overflow:visible;enable-background:accumulate;font-family:Sans;-inkscape-font-specification:Sans" />
      <rect
         y="1005.3622"
         x="23"
         height="46"
         width="2"
         id="rect3762"
         style="fill:#000000;stroke:none" />
      <rect
         transform="matrix(0,1,-1,0,0,0)"
         style="fill:#000000;stroke:none"
         id="rect3764"
         width="2"
         height="46"
         x="1027.3622"
         y="-47" />
    </g>
  </g>
</svg>
