<?xml version="1.0" encoding="UTF-8" standalone="no"?>
<!-- Created with Inkscape (http://www.inkscape.org/) -->

<svg
   xmlns:dc="http://purl.org/dc/elements/1.1/"
   xmlns:cc="http://creativecommons.org/ns#"
   xmlns:rdf="http://www.w3.org/1999/02/22-rdf-syntax-ns#"
   xmlns:svg="http://www.w3.org/2000/svg"
   xmlns="http://www.w3.org/2000/svg"
   xmlns:sodipodi="http://sodipodi.sourceforge.net/DTD/sodipodi-0.dtd"
   xmlns:inkscape="http://www.inkscape.org/namespaces/inkscape"
   width="48"
   height="48"
   id="svg2"
   inkscape:label="Pozadí"
   version="1.1"
   inkscape:version="0.48.4 r9939"
   sodipodi:docname="hide_layer.svg">
  <defs
     id="defs3" />
  <sodipodi:namedview
     id="base"
     pagecolor="#ffffff"
     bordercolor="#666666"
     borderopacity="1.0"
     inkscape:pageopacity="0.0"
     inkscape:pageshadow="2"
     inkscape:zoom="11.2"
     inkscape:cx="31.049484"
     inkscape:cy="30.084512"
     inkscape:document-units="px"
     inkscape:current-layer="layer1"
     showgrid="false"
     inkscape:window-width="1280"
     inkscape:window-height="1004"
     inkscape:window-x="1278"
     inkscape:window-y="-3"
     inkscape:window-maximized="1" />
  <metadata
     id="metadata6">
    <rdf:RDF>
      <cc:Work
         rdf:about="">
        <dc:format>image/svg+xml</dc:format>
        <dc:type
           rdf:resource="http://purl.org/dc/dcmitype/StillImage" />
        <dc:title></dc:title>
      </cc:Work>
    </rdf:RDF>
  </metadata>
  <g
     inkscape:label="Vrstva 1"
     inkscape:groupmode="layer"
     id="layer1"
     transform="translate(0,-1004.3622)">
    <path
       style="font-size:medium;font-style:normal;font-variant:normal;font-weight:normal;font-stretch:normal;text-indent:0;text-align:start;text-decoration:none;line-height:normal;letter-spacing:normal;word-spacing:normal;text-transform:none;direction:ltr;block-progression:tb;writing-mode:lr-tb;text-anchor:start;baseline-shift:baseline;opacity:0.8;color:#000000;fill:#000000;fill-opacity:1;stroke:none;stroke-width:0.75842589;marker:none;visibility:visible;display:inline;overflow:visible;enable-background:accumulate;font-family:Sans;-inkscape-font-specification:Sans"
       d="m 31.077415,1012.7684 c -5.319365,0.059 -9.805299,1.3482 -13.521473,3.1994 -10.8535736,5.4067 -15.197387,15.8067 -15.1973748,15.8067 1.4299446,-2.084 3.1325551,-3.9404 4.9896144,-5.5609 -2.8585044,4.4674 -3.8850433,7.8844 -3.8850433,7.8844 -0.7198038,1.8345 -3.13188216,1.3224 -2.2853194,3.5042 0.262841,0.6773 2.7901727,1.8079 3.6184224,-0.6857 1.6845474,-5.0712 3.7882803,-8.8418 6.1322757,-11.6551 -1.6206574,6.8688 2.672903,13.8071 9.636429,15.5402 7.015551,1.7463 14.122896,-2.4511 15.844883,-9.3698 1.165553,-4.6831 -0.442336,-9.3819 -3.770778,-12.4931 2.581423,0.6638 4.829492,1.5469 6.436983,2.3234 0.0082,0.013 0.02998,0.033 0.03809,0.038 0.06914,0.075 0.686947,0.2924 1.71399,0.876 -0.173039,1.5268 -1.033246,10.6326 -8.303327,17.0256 -4.618709,4.0616 -14.074308,4.0801 -21.824801,3.7707 0,0 9.776379,1.9394 18.511087,-0.6855 10.22098,-3.0714 13.61652,-15.7586 13.978539,-19.6918 0.278367,-0.1058 0.500465,-0.2241 0.495152,-0.2286 -0.0085,-0.013 4.656983,-2.4923 2.932826,-3.2755 -3.497374,-1.5888 -6.617041,-2.6867 -9.522164,-3.39 -1.223979,-0.2965 -2.422777,-0.5289 -3.580334,-0.6856 4.146934,-0.7564 7.073311,-0.9851 7.313022,-1.1045 -0.01322,-0.013 -0.04668,-0.032 -0.07618,-0.038 -0.417124,-0.071 -3.113028,-0.8376 -7.351111,-1.0665 -0.79464,-0.043 -1.563499,-0.046 -2.323408,-0.038 z m -4.913435,5.2562 c 1.530943,0 3.001832,0.1987 4.418283,0.4571 4.049168,2.7687 6.188608,7.751 4.951527,12.7215 -1.599446,6.4267 -8.202097,10.3497 -14.740311,8.7223 -6.538229,-1.6272 -10.512189,-8.1614 -8.912746,-14.5878 0.149947,-0.6025 0.338507,-1.1589 0.571329,-1.7141 0.0063,-0.015 0.03166,-0.023 0.03809,-0.038 4.264324,-4.1992 9.134455,-5.5744 13.673829,-5.5609 z"
       id="path3185"
       inkscape:connector-curvature="0" />
    <path
       style="opacity:0.8;fill:#000000;fill-opacity:1;fill-rule:nonzero;stroke:none"
       d="m 24.564256,1020.5385 c -2.708743,0.156 -5.137797,2.0278 -5.827565,4.7992 -0.848946,3.411 1.235814,6.8829 4.646816,7.7319 3.411002,0.8489 6.844958,-1.2358 7.693908,-4.6468 0.848947,-3.4111 -1.197724,-6.8452 -4.608727,-7.694 -0.639561,-0.1592 -1.279338,-0.2264 -1.904432,-0.1903 z m 1.180748,4.4183 c 1.935146,0 3.504156,1.5689 3.504156,3.5041 0,1.9351 -1.56901,3.5042 -3.504156,3.5042 -0.72568,0 -1.421385,-0.2316 -1.98061,-0.6095 l 2.475763,-3.0852 c -1.209395,0.4039 -2.561494,1.1416 -3.808867,1.2189 -0.10703,-0.3358 -0.190442,-0.6571 -0.190442,-1.0284 0,-1.9352 1.569009,-3.5041 3.504156,-3.5041 z"
       id="path3323"
       inkscape:connector-curvature="0" />
  </g>
</svg>
