<?xml version="1.0" encoding="UTF-8" standalone="no"?>
<!-- Created with Inkscape (http://www.inkscape.org/) -->

<svg
   xmlns:dc="http://purl.org/dc/elements/1.1/"
   xmlns:cc="http://creativecommons.org/ns#"
   xmlns:rdf="http://www.w3.org/1999/02/22-rdf-syntax-ns#"
   xmlns:svg="http://www.w3.org/2000/svg"
   xmlns="http://www.w3.org/2000/svg"
   xmlns:sodipodi="http://sodipodi.sourceforge.net/DTD/sodipodi-0.dtd"
   xmlns:inkscape="http://www.inkscape.org/namespaces/inkscape"
   width="48"
   height="48"
   id="svg2"
   inkscape:label="Pozadí"
   version="1.1"
   inkscape:version="0.48.4 r9939"
   sodipodi:docname="ic_menu_gps_off.svg">
  <defs
     id="defs3" />
  <sodipodi:namedview
     id="base"
     pagecolor="#ffffff"
     bordercolor="#666666"
     borderopacity="1.0"
     inkscape:pageopacity="0.0"
     inkscape:pageshadow="2"
     inkscape:zoom="7.919596"
     inkscape:cx="13.985207"
     inkscape:cy="29.054035"
     inkscape:document-units="px"
     inkscape:current-layer="layer1"
     showgrid="false"
     inkscape:window-width="1237"
     inkscape:window-height="780"
     inkscape:window-x="41"
     inkscape:window-y="-3"
     inkscape:window-maximized="1" />
  <metadata
     id="metadata6">
    <rdf:RDF>
      <cc:Work
         rdf:about="">
        <dc:format>image/svg+xml</dc:format>
        <dc:type
           rdf:resource="http://purl.org/dc/dcmitype/StillImage" />
        <dc:title />
      </cc:Work>
    </rdf:RDF>
  </metadata>
  <g
     inkscape:label="Vrstva 1"
     inkscape:groupmode="layer"
     id="layer1"
     transform="translate(0,-1004.3622)">
    <path
       sodipodi:type="arc"
       style="fill:#000000;fill-opacity:1;fill-rule:nonzero;stroke:none"
       id="path2986"
       sodipodi:cx="21.383928"
       sodipodi:cy="22.107143"
       sodipodi:rx="10.357142"
       sodipodi:ry="10.133928"
       d="m 31.741071,22.107143 a 10.357142,10.133928 0 1 1 -20.714285,0 10.357142,10.133928 0 1 1 20.714285,0 z"
       transform="matrix(1.2154309,0,0,1.2422025,-1.9906866,1000.9007)" />
    <path
       style="font-size:medium;font-style:normal;font-variant:normal;font-weight:normal;font-stretch:normal;text-indent:0;text-align:start;text-decoration:none;line-height:normal;letter-spacing:normal;word-spacing:normal;text-transform:none;direction:ltr;block-progression:tb;writing-mode:lr-tb;text-anchor:start;baseline-shift:baseline;color:#000000;fill:#000000;fill-opacity:1;stroke:none;stroke-width:2.012218;marker:none;visibility:visible;display:inline;overflow:visible;enable-background:accumulate;font-family:Sans;-inkscape-font-specification:Sans"
       d="m 24.172803,1008.6264 c -10.937605,0 -19.7973609,8.8914 -19.7973609,19.829 0,10.9375 8.8597559,19.8289 19.7973609,19.8289 10.937605,0 19.828936,-8.8914 19.828936,-19.8289 0,-10.9376 -8.891331,-19.829 -19.828936,-19.829 z m 0,2.0208 c 9.838821,0 17.808153,7.9693 17.808153,17.8082 0,9.8387 -7.969332,17.8081 -17.808153,17.8081 -9.838821,0 -17.7765776,-7.9694 -17.7765776,-17.8081 0,-9.8389 7.9377566,-17.8082 17.7765776,-17.8082 z"
       id="path3756"
       inkscape:connector-curvature="0" />
    <rect
       style="fill:#000000;stroke:none"
       id="rect3762"
       width="2.0869565"
       height="48"
       x="22.956522"
       y="1004.3622" />
    <rect
       y="-48"
       x="1027.3187"
       height="48"
       width="2.0869565"
       id="rect3764"
       style="fill:#000000;stroke:none"
       transform="matrix(0,1,-1,0,0,0)" />
  </g>
</svg>
