<?xml version="1.0" encoding="UTF-8" standalone="no"?>
<!-- Created with Inkscape (http://www.inkscape.org/) -->

<svg
   xmlns:dc="http://purl.org/dc/elements/1.1/"
   xmlns:cc="http://creativecommons.org/ns#"
   xmlns:rdf="http://www.w3.org/1999/02/22-rdf-syntax-ns#"
   xmlns:svg="http://www.w3.org/2000/svg"
   xmlns="http://www.w3.org/2000/svg"
   xmlns:sodipodi="http://sodipodi.sourceforge.net/DTD/sodipodi-0.dtd"
   xmlns:inkscape="http://www.inkscape.org/namespaces/inkscape"
   width="48"
   height="48"
   id="svg2"
   inkscape:label="Pozadí"
   version="1.1"
   inkscape:version="0.48.4 r9939"
   sodipodi:docname="show_gps.svg">
  <defs
     id="defs3" />
  <sodipodi:namedview
     id="base"
     pagecolor="#ffffff"
     bordercolor="#666666"
     borderopacity="1.0"
     inkscape:pageopacity="0.0"
     inkscape:pageshadow="2"
     inkscape:zoom="11.2"
     inkscape:cx="20.775314"
     inkscape:cy="23.714511"
     inkscape:document-units="px"
     inkscape:current-layer="layer1"
     showgrid="false"
     inkscape:window-width="1280"
     inkscape:window-height="1004"
     inkscape:window-x="1278"
     inkscape:window-y="-3"
     inkscape:window-maximized="1" />
  <metadata
     id="metadata6">
    <rdf:RDF>
      <cc:Work
         rdf:about="">
        <dc:format>image/svg+xml</dc:format>
        <dc:type
           rdf:resource="http://purl.org/dc/dcmitype/StillImage" />
        <dc:title></dc:title>
      </cc:Work>
    </rdf:RDF>
  </metadata>
  <g
     inkscape:label="Vrstva 1"
     inkscape:groupmode="layer"
     id="layer1"
     transform="translate(0,-1004.3622)">
    <g
       id="g3827"
       transform="translate(0,3.454895e-5)">
      <path
         transform="matrix(0.75089958,0,0,0.76743919,-2.2803971,1021.6195)"
         d="m 31.741071,22.107143 c 0,5.596814 -4.637051,10.133929 -10.357143,10.133929 -5.720092,0 -10.357142,-4.537115 -10.357142,-10.133929 0,-5.596814 4.63705,-10.133928 10.357142,-10.133928 5.720092,0 10.357143,4.537114 10.357143,10.133928 z"
         sodipodi:ry="10.133928"
         sodipodi:rx="10.357142"
         sodipodi:cy="22.107143"
         sodipodi:cx="21.383928"
         id="path2986"
         style="fill:#000000;fill-opacity:1;fill-rule:nonzero;stroke:none"
         sodipodi:type="arc" />
      <path
         inkscape:connector-curvature="0"
         id="path3756"
         d="m 13.769581,1028.0291 c -5.8228093,0 -10.5394428,4.7335 -10.5394428,10.5563 0,5.8228 4.7166335,10.5562 10.5394428,10.5562 5.82281,0 10.556253,-4.7334 10.556253,-10.5562 0,-5.8228 -4.733443,-10.5563 -10.556253,-10.5563 z m 0,1.0758 c 5.237855,0 9.480456,4.2426 9.480456,9.4805 0,5.2378 -4.242601,9.4804 -9.480456,9.4804 -5.2378542,0 -9.4636464,-4.2426 -9.4636464,-9.4804 0,-5.2379 4.2257922,-9.4805 9.4636464,-9.4805 z"
         style="font-size:medium;font-style:normal;font-variant:normal;font-weight:normal;font-stretch:normal;text-indent:0;text-align:start;text-decoration:none;line-height:normal;letter-spacing:normal;word-spacing:normal;text-transform:none;direction:ltr;block-progression:tb;writing-mode:lr-tb;text-anchor:start;baseline-shift:baseline;color:#000000;fill:#000000;fill-opacity:1;stroke:none;stroke-width:2.012218;marker:none;visibility:visible;display:inline;overflow:visible;enable-background:accumulate;font-family:Sans;-inkscape-font-specification:Sans" />
      <rect
         y="1025.8086"
         x="13.221273"
         height="25.553572"
         width="1.1110249"
         id="rect3762"
         style="fill:#000000;stroke:none" />
      <rect
         transform="matrix(0,1,-1,0,0,0)"
         style="fill:#000000;stroke:none"
         id="rect3764"
         width="1.1110249"
         height="25.553572"
         x="1038.0299"
         y="-26.553572" />
    </g>
    <path
       style="fill:#000000;fill-opacity:1;fill-rule:nonzero;stroke:none"
       d="m 41.675011,1026.3922 -3.602097,-3.6021 8.386133,-8.3862 -9.005243,-9.0052 -8.386133,8.3861 -3.602097,-3.6021 -1.350787,9.4555 -1.350787,9.4555 9.455507,-1.3509 9.455504,-1.3506 z"
       id="rect3833"
       inkscape:connector-curvature="0" />
  </g>
</svg>
